{"title":"Nat Geo - NAZI MEGASTRUCTURES HDTV 1080i 2013","uid":13254949,"size":19345410184,"categoryP":"video","categoryS":"hd___tv_shows","magnet":"?xt=urn:btih:821fc87e8584b9cc221a84c866940b00de6b3ccc&amp;dn=Nat+Geo+-+NAZI+MEGASTRUCTURES+HDTV+1080i+2013&amp;tr=udp%3A%2F%2Ftracker.leechers-paradise.org%3A6969&amp;tr=udp%3A%2F%2Fzer0day.ch%3A1337&amp;tr=udp%3A%2F%2Fopen.demonii.com%3A1337&amp;tr=udp%3A%2F%2Ftracker.coppersurfer.tk%3A6969&amp;tr=udp%3A%2F%2Fexodus.desync.com%3A6969","seeders":1,"leechers":0,"uploader":"Horisarte","files":6,"time":1453211371,"description":"http://natgeotv.com/uk/nazi-megastructures/about\r\n\r\nFormat : MPEG-TS\r\nFile size : 2.41 GiB\r\nDuration : 44mn 0s\r\nOverall bit rate mode : Variable\r\nOverall bit rate : 7 843 Kbps\r\nMaximum Overall bit rate : 35.5 Mbps\r\n\r\nVideo\r\nID : 4113 (0x1011)\r\nMenu ID : 1 (0x1)\r\nFormat : AVC\r\nFormat/Info : Advanced Video Codec\r\nFormat profile :   \r\nFormat settings, CABAC : Yes\r\nFormat settings, ReFrames : 3 frames\r\nCodec ID : 27\r\nDuration : 44mn 0s\r\nBit rate mode : Variable\r\nBit rate : 6 291 Kbps\r\nMaximum bit rate : 40.0 Mbps\r\nWidth : 1 920 pixels\r\nHeight : 1 080 pixels\r\nDisplay aspect ratio : 16:9\r\nFrame rate : 25.000 fps\r\nStandard : Component\r\nColor space : YUV\r\nChroma subsampling : 4:2:0\r\nBit depth : 8 bits\r\nScan type : Interlaced\r\nScan order : Top Field First\r\nBits/(Pixel*Frame) : 0.121\r\nStream size : 1.93 GiB (80%)\r\nColor range : Limited\r\nColor primaries : BT.709\r\nTransfer characteristics : BT.709\r\nMatrix coefficients : BT.709\r\n\r\nAudio #1\r\nID : 4352 (0x1100)\r\nMenu ID : 1 (0x1)\r\nFormat : AC-3\r\nFormat/Info : Audio Coding 3\r\nMode extension : CM (complete main)\r\nFormat settings, Endianness : Big\r\nCodec ID : 129\r\nDuration : 44mn 0s\r\nBit rate mode : Constant\r\nBit rate : 384 Kbps\r\nChannel(s) : 2 channels\r\nChannel positions : Front: L R\r\nSampling rate : 48.0 KHz\r\nCompression mode : Lossy\r\nStream size : 121 MiB (5%)\r\nLanguage : Russian\r\n\r\nAudio #2\r\nID : 6656 (0x1A00)\r\nMenu ID : 1 (0x1)\r\nFormat : AC-3\r\nFormat/Info : Audio Coding 3\r\nMode extension : CM (complete main)\r\nFormat settings, Endianness : Big\r\nCodec ID : 129\r\nDuration : 43mn 59s\r\nBit rate mode : Constant\r\nBit rate : 384 Kbps\r\nChannel(s) : 2 channels\r\nChannel positions : Front: L R\r\nSampling rate : 48.0 KHz\r\nCompression mode : Lossy\r\nStream size : 121 MiB (5%)\r\nLanguage : English\r\n\r\nAudio #3\r\nID : 6657 (0x1A01)\r\nMenu ID : 1 (0x1)\r\nFormat : AC-3\r\nFormat/Info : Audio Coding 3\r\nMode extension : CM (complete main)\r\nFormat settings, Endianness : Big\r\nCodec ID : 129\r\nDuration : 44mn 0s\r\nBit rate mode : Constant\r\nBit rate : 384 Kbps\r\nChannel(s) : 2 channels\r\nChannel positions : Front: L R\r\nSampling rate : 48.0 KHz\r\nCompression mode : Lossy\r\nStream size : 121 MiB (5%)\r\nLanguage : German","torrent":{"xt":"urn:btih:821fc87e8584b9cc221a84c866940b00de6b3ccc","amp;dn":"Nat+Geo+-+NAZI+MEGASTRUCTURES+HDTV+1080i+2013","amp;tr":["udp%3A%2F%2Ftracker.leechers-paradise.org%3A6969","udp%3A%2F%2Fzer0day.ch%3A1337","udp%3A%2F%2Fopen.demonii.com%3A1337","udp%3A%2F%2Ftracker.coppersurfer.tk%3A6969","udp%3A%2F%2Fexodus.desync.com%3A6969"],"infoHash":"821fc87e8584b9cc221a84c866940b00de6b3ccc","infoHashBuffer":{"type":"Buffer","data":[130,31,200,126,133,132,185,204,34,26,132,200,102,148,11,0,222,107,60,204]},"announce":[],"urlList":[]}}